# xmcd CD database file
# Copyright (C) 1996 Ti Kan
#
# Track frame offsets:
#	182
#	27785
#	55877
#	81742
#	102227
#	120817
#	138470
#	151992
#	187770
#	209375
#	232242
#	254987
#	277225
# Disc length: 3958 seconds
#
# Revision: 1
# Processed by: cddbd v1.5PL3 Copyright (c) Steve Scherf et al.
# Submitted via: CDCOPY 4.744
#
DISCID=bf0f740d
DTITLE=Vari - New Age and New Sounds vol5 - Bodymusic and sentimento
DYEAR=1900
DGENRE=
TTITLE0=Nicholas - Medicine man
TTITLE1=Nicholas - Here I stand please hold my hand
TTITLE2=Nicholas - Making love (with you)
TTITLE3=Hajian and Moreno - Surreal
TTITLE4=Hajian and Moreno - Desire
TTITLE5=Thilo Rex - Street
TTITLE6=Lothar Krell - Flaming tower
TTITLE7=Lenny MacDowell e Christoph SP - Harp song (for Andreas)
TTITLE8=Attilio Casati - Reflections
TTITLE9=Eneiro - Il triangolo magico
TTITLE10=Rare Silk - Oops
TTITLE11=Tim Heintz - Dear Jacqui
TTITLE12=Geroge Shaw and Jetstream - Diane's love song
EXTD=
EXTT0=
EXTT1=
EXTT2=
EXTT3=
EXTT4=
EXTT5=
EXTT6=
EXTT7=
EXTT8=
EXTT9=
EXTT10=
EXTT11=
EXTT12=
PLAYORDER=
